<svg width="26" height="26" viewBox="0 0 26 26" fill="none" xmlns="http://www.w3.org/2000/svg">
<path d="M13 0C5.81855 0 0 5.81855 0 13C0 20.1815 5.81855 26 13 26C20.1815 26 26 20.1815 26 13C26 5.81855 20.1815 0 13 0ZM17.8483 16.4073L16.7999 17.7177C16.7311 17.8038 16.646 17.8754 16.5495 17.9285C16.453 17.9817 16.347 18.0153 16.2376 18.0274C16.1281 18.0396 16.0173 18.0301 15.9115 17.9994C15.8057 17.9688 15.707 17.9176 15.621 17.8488L12.1089 15.2425C11.8635 15.046 11.6654 14.7969 11.5293 14.5135C11.3932 14.2301 11.3225 13.9198 11.3226 13.6054V5.45161C11.3226 5.22917 11.4109 5.01584 11.5682 4.85856C11.7255 4.70127 11.9389 4.6129 12.1613 4.6129H13.8387C14.0611 4.6129 14.2745 4.70127 14.4318 4.85856C14.5891 5.01584 14.6774 5.22917 14.6774 5.45161V13L17.7177 15.2278C17.8038 15.2967 17.8754 15.3818 17.9286 15.4783C17.9817 15.5749 18.0153 15.681 18.0274 15.7905C18.0395 15.9 18.03 16.0109 17.9992 16.1167C17.9685 16.2225 17.9172 16.3213 17.8483 16.4073Z" fill="white"/>
</svg>
