<svg width="28" height="22" viewBox="0 0 28 22" fill="none" xmlns="http://www.w3.org/2000/svg">
<path d="M21.3959 9.7084L12.2916 0.604098C11.9048 0.217303 11.3802 2.86033e-06 10.8332 0L2.0625 0C0.923399 0 0 0.923399 0 2.0625V10.8332C2.86033e-06 11.3802 0.217303 11.9048 0.604098 12.2916L9.70841 21.3959C10.5138 22.2014 11.8197 22.2014 12.6252 21.3959L21.3959 12.6252C22.2014 11.8198 22.2014 10.5139 21.3959 9.7084ZM4.8125 6.875C3.6734 6.875 2.75 5.9516 2.75 4.8125C2.75 3.6734 3.6734 2.75 4.8125 2.75C5.9516 2.75 6.875 3.6734 6.875 4.8125C6.875 5.9516 5.9516 6.875 4.8125 6.875ZM26.8959 12.6252L18.1252 21.3959C17.3198 22.2014 16.0139 22.2014 15.2084 21.3959L15.1929 21.3804L22.672 13.9013C23.4025 13.1709 23.8047 12.1998 23.8047 11.1668C23.8047 10.1338 23.4024 9.1627 22.672 8.43228L14.2397 0H16.3332C16.8802 2.86033e-06 17.4048 0.217303 17.7916 0.604098L26.8959 9.7084C27.7014 10.5139 27.7014 11.8198 26.8959 12.6252Z" fill="white"/>
</svg>
