<svg width="35" height="35" viewBox="0 0 35 35" fill="none" xmlns="http://www.w3.org/2000/svg">
<path d="M30.7351 0H3.68822C2.71004 0 1.77193 0.388579 1.08025 1.08025C0.388579 1.77193 0 2.71004 0 3.68822L0 30.7351C0 31.7133 0.388579 32.6514 1.08025 33.3431C1.77193 34.0348 2.71004 34.4233 3.68822 34.4233H14.2342V22.7202H9.39342V17.2117H14.2342V13.0133C14.2342 8.23778 17.0772 5.59994 21.4316 5.59994C23.517 5.59994 25.6976 5.97184 25.6976 5.97184V10.6589H23.2949C20.9275 10.6589 20.1891 12.1281 20.1891 13.6349V17.2117H25.474L24.6288 22.7202H20.1891V34.4233H30.7351C31.7133 34.4233 32.6514 34.0348 33.3431 33.3431C34.0348 32.6514 34.4233 31.7133 34.4233 30.7351V3.68822C34.4233 2.71004 34.0348 1.77193 33.3431 1.08025C32.6514 0.388579 31.7133 0 30.7351 0Z" fill="white"/>
</svg>
