<svg width="41" height="35" viewBox="0 0 41 35" fill="none" xmlns="http://www.w3.org/2000/svg">
<path d="M13 20H11.75C8.98828 20 6.75 22.2422 6.75 25.0094V29.9906C6.75 32.757 8.98828 35 11.75 35H13C14.3805 35 15.5 33.8781 15.5 32.4953V22.5047C15.5 21.1211 14.3805 20 13 20ZM29.25 20H28C26.6195 20 25.5 21.1211 25.5 22.5047V32.4953C25.5 33.8781 26.6195 35 28 35H29.25C32.0117 35 34.25 32.757 34.25 29.9906V25.0094C34.25 22.243 32.0117 20 29.25 20ZM20.5 0C9.32109 0 0.857031 9.30703 0.5 20V28.75C0.5 29.4406 1.05937 30 1.75 30H3C3.69062 30 4.25 29.4406 4.25 28.75V20C4.25 11.0414 11.5414 3.76562 20.5 3.76406C29.4586 3.76562 36.75 11.0414 36.75 20V28.75C36.75 29.4406 37.3094 30 38 30H39.25C39.9406 30 40.5 29.4406 40.5 28.75V20C40.143 9.30703 31.6789 0 20.5 0Z" fill="#FF0000"/>
</svg>
