<svg width="34" height="46" viewBox="0 0 34 46" fill="none" xmlns="http://www.w3.org/2000/svg">
<path d="M7.16775 41.8129C6.78879 43.3323 7.71141 44.8703 9.22905 45.2493C9.46015 45.3078 9.69125 45.3334 9.91969 45.3334C11.1885 45.3334 12.3431 44.4746 12.6663 43.188L14.9011 34.2478L10.2278 29.5744L7.16775 41.8129ZM8.48617 24.4478L12.1306 10.3596C12.3245 9.61406 11.8526 8.85879 11.0752 8.67196C7.18989 7.74048 3.25236 10.0063 2.28103 13.734L0.0435375 22.4228C-0.150373 23.1683 0.321564 23.9236 1.09898 24.1104L6.72681 25.4607C7.50511 25.6466 8.29226 25.1933 8.48617 24.4478ZM32.5842 14.167H31.1675C30.3848 14.167 29.7508 14.8009 29.7508 15.5837V17.0004H26.6739L22.5318 12.8583C21.5499 11.8746 20.2421 11.3336 18.852 11.3336C16.4595 11.3336 14.3832 12.9539 13.8023 15.2755L11.4187 24.8135C11.3002 25.2882 11.3065 25.7855 11.4372 26.257C11.5678 26.7286 11.8183 27.1583 12.1643 27.5043L19.8339 35.1739V42.5009C19.8339 44.0655 21.1027 45.3343 22.6673 45.3343C24.2319 45.3343 25.5007 44.0655 25.5007 42.5009V35.1739C25.5007 33.6607 24.911 32.2378 23.8405 31.1673L19.6949 27.0217C19.7082 26.9775 19.7383 26.9429 19.7498 26.8969L21.5109 19.8515L23.497 21.8375C24.0282 22.3688 24.749 22.668 25.4998 22.668H29.7499V43.9185C29.7499 44.7012 30.3839 45.3352 31.1666 45.3352H32.5833C33.366 45.3352 34 44.7012 34 43.9185V15.5837C34.0009 14.8009 33.3669 14.167 32.5842 14.167ZM21.2506 8.50018C23.5979 8.50018 25.5007 6.59738 25.5007 4.25009C25.5007 1.9028 23.5979 0 21.2506 0C18.9033 0 17.0005 1.9028 17.0005 4.25009C17.0005 6.59738 18.9033 8.50018 21.2506 8.50018Z" fill="#FF0000"/>
</svg>
