<svg width="45" height="40" viewBox="0 0 45 40" fill="none" xmlns="http://www.w3.org/2000/svg">
<path d="M43.75 5C44.4406 5 45 4.44063 45 3.75V1.25C45 0.559375 44.4406 0 43.75 0H1.25C0.559375 0 0 0.559375 0 1.25V3.75C0 4.44063 0.559375 5 1.25 5H2.49844V35H1.25C0.559375 35 0 35.5594 0 36.25V38.75C0 39.4406 0.559375 40 1.25 40H20V33.75C20 33.0625 20.5625 32.5 21.25 32.5H23.75C24.4375 32.5 25 33.0625 25 33.75V40H43.75C44.4406 40 45 39.4406 45 38.75V36.25C45 35.5594 44.4406 35 43.75 35H42.5V5H43.75ZM20 8.5C20 8 20.5 7.5 21 7.5H24C24.5 7.5 25 8 25 8.5V11.5C25 12 24.5 12.5 24 12.5H21C20.5 12.5 20 12 20 11.5V8.5ZM20 16C20 15.5 20.5 15 21 15H24C24.5 15 25 15.5 25 16V19C25 19.5 24.5 20 24 20H21C20.5 20 20 19.5 20 19V16ZM10 8.5C10 8 10.5 7.5 11 7.5H14C14.5 7.5 15 8 15 8.5V11.5C15 12 14.5 12.5 14 12.5H11C10.5 12.5 10 12 10 11.5V8.5ZM14 20H11C10.5 20 10 19.5 10 19V16C10 15.5 10.5 15 11 15H14C14.5 15 15 15.5 15 16V19C15 19.5 14.5 20 14 20ZM15 30C15 25.8578 18.3578 22.5 22.5 22.5C26.6422 22.5 30 25.8578 30 30H15ZM35 19C35 19.5 34.5 20 34 20H31C30.5 20 30 19.5 30 19V16C30 15.5 30.5 15 31 15H34C34.5 15 35 15.5 35 16V19ZM35 11.5C35 12 34.5 12.5 34 12.5H31C30.5 12.5 30 12 30 11.5V8.5C30 8 30.5 7.5 31 7.5H34C34.5 7.5 35 8 35 8.5V11.5Z" fill="#FF0000"/>
</svg>
