<svg width="309" height="71" viewBox="0 0 309 71" fill="none" xmlns="http://www.w3.org/2000/svg">
<rect width="71" height="71" fill="#FF2E2E"/>
<g filter="url(#filter0_d_1_126)">
<path d="M64.6156 54.6861L37.9922 10.1659C37.4477 9.25562 36.5104 8.70508 35.5037 8.70508C34.497 8.70508 33.5596 9.25562 33.0151 10.1659L6.39177 54.6861C6.10447 55.1665 5.94281 55.7212 5.92377 56.292C5.90474 56.8627 6.02904 57.4284 6.28361 57.9297C6.53831 58.4309 6.91382 58.8491 7.37073 59.1404C7.82764 59.4317 8.34909 59.5854 8.88032 59.5853H62.127C63.2095 59.5853 64.2052 58.9503 64.7238 57.9287C64.9783 57.4276 65.1026 56.8621 65.0836 56.2915C65.0646 55.7209 64.9029 55.1663 64.6156 54.6861ZM35.5037 17.7661L43.3973 30.9652H35.5037L29.5874 37.3252L26.069 33.543L35.5037 17.7661Z" fill="#FBFBFB"/>
</g>
<path d="M120.295 25.8409C120.114 24.0076 119.333 22.5833 117.955 21.5682C116.576 20.553 114.705 20.0455 112.341 20.0455C110.735 20.0455 109.379 20.2727 108.273 20.7273C107.167 21.1667 106.318 21.7803 105.727 22.5682C105.152 23.3561 104.864 24.25 104.864 25.25C104.833 26.0833 105.008 26.8106 105.386 27.4318C105.78 28.053 106.318 28.5909 107 29.0455C107.682 29.4848 108.47 29.8712 109.364 30.2045C110.258 30.5227 111.212 30.7955 112.227 31.0227L116.409 32.0227C118.439 32.4773 120.303 33.0833 122 33.8409C123.697 34.5985 125.167 35.5303 126.409 36.6364C127.652 37.7424 128.614 39.0455 129.295 40.5455C129.992 42.0455 130.348 43.7652 130.364 45.7045C130.348 48.553 129.621 51.0227 128.182 53.1136C126.758 55.1894 124.697 56.803 122 57.9545C119.318 59.0909 116.083 59.6591 112.295 59.6591C108.538 59.6591 105.265 59.0833 102.477 57.9318C99.7045 56.7803 97.5379 55.0758 95.9773 52.8182C94.4318 50.5455 93.6212 47.7348 93.5455 44.3864H103.068C103.174 45.947 103.621 47.25 104.409 48.2955C105.212 49.3258 106.28 50.1061 107.614 50.6364C108.962 51.1515 110.485 51.4091 112.182 51.4091C113.848 51.4091 115.295 51.1667 116.523 50.6818C117.765 50.197 118.727 49.5227 119.409 48.6591C120.091 47.7955 120.432 46.803 120.432 45.6818C120.432 44.6364 120.121 43.7576 119.5 43.0455C118.894 42.3333 118 41.7273 116.818 41.2273C115.652 40.7273 114.22 40.2727 112.523 39.8636L107.455 38.5909C103.53 37.6364 100.432 36.1439 98.1591 34.1136C95.8864 32.0833 94.7576 29.3485 94.7727 25.9091C94.7576 23.0909 95.5076 20.6288 97.0227 18.5227C98.553 16.4167 100.652 14.7727 103.318 13.5909C105.985 12.4091 109.015 11.8182 112.409 11.8182C115.864 11.8182 118.879 12.4091 121.455 13.5909C124.045 14.7727 126.061 16.4167 127.5 18.5227C128.939 20.6288 129.682 23.0682 129.727 25.8409H120.295ZM147.46 59L134.142 12.4545H144.892L152.597 44.7955H152.983L161.483 12.4545H170.688L179.165 44.8636H179.574L187.278 12.4545H198.028L184.71 59H175.119L166.256 28.5682H165.892L157.051 59H147.46ZM213.136 12.4545V59H203.295V12.4545H213.136ZM219.46 20.5682V12.4545H257.688V20.5682H243.438V59H233.71V20.5682H219.46ZM263.483 59V53.1591L286.71 20.5682H263.438V12.4545H299.074V18.2955L275.824 50.8864H299.119V59H263.483Z" fill="white"/>
<defs>
<filter id="filter0_d_1_126" x="1.92188" y="8.70508" width="67.1636" height="58.8801" filterUnits="userSpaceOnUse" color-interpolation-filters="sRGB">
<feFlood flood-opacity="0" result="BackgroundImageFix"/>
<feColorMatrix in="SourceAlpha" type="matrix" values="0 0 0 0 0 0 0 0 0 0 0 0 0 0 0 0 0 0 127 0" result="hardAlpha"/>
<feOffset dy="4"/>
<feGaussianBlur stdDeviation="2"/>
<feComposite in2="hardAlpha" operator="out"/>
<feColorMatrix type="matrix" values="0 0 0 0 1 0 0 0 0 1 0 0 0 0 1 0 0 0 0.04 0"/>
<feBlend mode="normal" in2="BackgroundImageFix" result="effect1_dropShadow_1_126"/>
<feBlend mode="normal" in="SourceGraphic" in2="effect1_dropShadow_1_126" result="shape"/>
</filter>
</defs>
</svg>
