<svg width="35" height="35" viewBox="0 0 35 35" fill="none" xmlns="http://www.w3.org/2000/svg">
<path d="M17.5038 8.38409C12.6197 8.38409 8.6801 12.3237 8.6801 17.2078C8.6801 22.092 12.6197 26.0316 17.5038 26.0316C22.388 26.0316 26.3276 22.092 26.3276 17.2078C26.3276 12.3237 22.388 8.38409 17.5038 8.38409ZM17.5038 22.9444C14.3476 22.9444 11.7673 20.3718 11.7673 17.2078C11.7673 14.0439 14.3399 11.4712 17.5038 11.4712C20.6678 11.4712 23.2404 14.0439 23.2404 17.2078C23.2404 20.3718 20.6601 22.9444 17.5038 22.9444ZM28.7466 8.02315C28.7466 9.1674 27.8251 10.0813 26.6885 10.0813C25.5443 10.0813 24.6304 9.15972 24.6304 8.02315C24.6304 6.88659 25.552 5.96505 26.6885 5.96505C27.8251 5.96505 28.7466 6.88659 28.7466 8.02315ZM34.5907 10.112C34.4602 7.35504 33.8304 4.91296 31.8107 2.90093C29.7987 0.888902 27.3566 0.259183 24.5997 0.120952C21.7583 -0.0403174 13.2417 -0.0403174 10.4003 0.120952C7.65105 0.251504 5.20897 0.881222 3.18926 2.89325C1.16955 4.90528 0.547513 7.34736 0.409282 10.1043C0.248013 12.9457 0.248013 21.4623 0.409282 24.3037C0.539834 27.0606 1.16955 29.5027 3.18926 31.5147C5.20897 33.5268 7.64337 34.1565 10.4003 34.2947C13.2417 34.456 21.7583 34.456 24.5997 34.2947C27.3566 34.1642 29.7987 33.5344 31.8107 31.5147C33.8228 29.5027 34.4525 27.0606 34.5907 24.3037C34.752 21.4623 34.752 12.9534 34.5907 10.112ZM30.9199 27.3524C30.3209 28.8576 29.1613 30.0172 27.6485 30.6239C25.383 31.5224 20.0074 31.3151 17.5038 31.3151C15.0003 31.3151 9.617 31.5147 7.35923 30.6239C5.85404 30.0249 4.69444 28.8653 4.08776 27.3524C3.18926 25.087 3.39661 19.7113 3.39661 17.2078C3.39661 14.7043 3.19694 9.32099 4.08776 7.06322C4.68676 5.55804 5.84636 4.39843 7.35923 3.79175C9.62468 2.89325 15.0003 3.1006 17.5038 3.1006C20.0074 3.1006 25.3907 2.90093 27.6485 3.79175C29.1536 4.39075 30.3132 5.55036 30.9199 7.06322C31.8184 9.32867 31.6111 14.7043 31.6111 17.2078C31.6111 19.7113 31.8184 25.0947 30.9199 27.3524Z" fill="white"/>
</svg>
