<svg width="57" height="56" viewBox="0 0 57 56" fill="none" xmlns="http://www.w3.org/2000/svg">
<path d="M32.765 51.835L29.9407 54.6592C28.7449 55.855 26.8112 55.855 25.6281 54.6592L0.896887 29.9407C-0.298962 28.7449 -0.298962 26.8112 0.896887 25.6281L25.6281 0.896887C26.8239 -0.298962 28.7576 -0.298962 29.9407 0.896887L32.765 3.72112C33.9736 4.9297 33.9481 6.90157 32.7141 8.0847L17.3843 22.6893H53.9468C55.6388 22.6893 57 24.0506 57 25.7426V29.8135C57 31.5055 55.6388 32.8668 53.9468 32.8668H17.3843L32.7141 47.4714C33.9608 48.6545 33.9863 50.6264 32.765 51.835Z" fill="white"/>
</svg>
