<svg width="35" height="29" viewBox="0 0 35 29" fill="none" xmlns="http://www.w3.org/2000/svg">
<path d="M31.4616 7.31654C31.4835 7.62232 31.4835 7.92816 31.4835 8.23394C31.4835 17.5605 24.3848 28.307 11.4104 28.307C7.41329 28.307 3.70013 27.1493 0.576668 25.1399C1.14459 25.2054 1.69059 25.2272 2.28036 25.2272C5.57849 25.2272 8.61462 24.1133 11.0391 22.213C7.93751 22.1475 5.33827 20.1162 4.44272 17.3203C4.8796 17.3858 5.31642 17.4295 5.77515 17.4295C6.40856 17.4295 7.04203 17.3421 7.63173 17.1893C4.39909 16.534 1.97452 13.6945 1.97452 10.2653V10.1779C2.9137 10.7021 4.0059 11.0298 5.16346 11.0734C3.26318 9.80653 2.01822 7.64417 2.01822 5.19781C2.01822 3.8873 2.36763 2.68598 2.97925 1.63754C6.45219 5.91862 11.6725 8.71439 17.5262 9.02023C17.417 8.49601 17.3515 7.95001 17.3515 7.40394C17.3515 3.51597 20.4968 0.348877 24.4065 0.348877C26.4378 0.348877 28.2726 1.20072 29.5613 2.57679C31.1557 2.27101 32.6847 1.68124 34.039 0.873095C33.5147 2.5113 32.4008 3.88737 30.9374 4.761C32.3571 4.60818 33.7332 4.21493 35 3.66893C34.0391 5.06678 32.8377 6.31174 31.4616 7.31654Z" fill="white"/>
</svg>
